<svg width="125" height="58" viewBox="0 0 125 58" fill="none" xmlns="http://www.w3.org/2000/svg">
<path d="M82.935 27.7248C82.725 26.7473 82.3405 25.9795 81.7815 25.4212C81.6418 25.2816 81.3973 25.1421 81.0481 25.0026C80.7687 24.933 80.5592 24.8633 80.4195 24.7935C80.2099 24.654 78.9879 24.5151 76.7533 24.3767C74.5188 24.3082 71.8653 24.24 68.7929 24.172C65.7205 24.1039 62.5084 24.0709 59.1567 24.0729C55.8748 24.0749 53.0119 24.1813 50.5681 24.3922C48.5432 24.6029 46.5535 25.1278 44.5988 25.9669C42.714 26.8757 41.4929 28.3428 40.9355 30.3681C40.7967 31.9044 41.0071 33.3358 41.5665 34.6621C42.1957 36.0583 43.2089 37.1051 44.6058 37.8026C46.2123 38.5697 47.8883 38.883 49.6339 38.7423C51.4494 38.6714 53.2301 38.81 54.976 39.1581C54.8369 40.1357 54.8026 41.2181 54.8731 42.4051C54.9437 43.662 54.9794 44.9188 54.9801 46.1757C54.9809 47.4326 54.9467 48.6546 54.8775 49.8417C54.8085 51.0986 54.6345 52.216 54.3558 53.1937C50.7255 54.3829 47.0947 54.6993 43.4633 54.1428C39.9018 53.5863 36.689 52.3662 33.825 50.4826C30.961 48.599 28.5854 46.1215 26.6982 43.0502C24.8809 40.0487 23.9362 36.6277 23.8642 32.7873C23.5135 30.2737 23.512 27.6901 23.8596 25.0365C24.1373 22.3829 24.7992 19.9036 25.8452 17.5987C26.9611 15.2937 28.4962 13.3376 30.4504 11.7305C32.4046 10.1931 34.848 9.28391 37.7806 9.00287C40.2943 8.86173 42.9128 8.75544 45.636 8.684C48.3592 8.61256 51.3967 8.54094 54.7483 8.46913C58.1699 8.46711 62.0104 8.46484 66.2698 8.46232C70.5992 8.52958 75.5918 8.59646 81.2479 8.66294C82.4349 8.52259 83.622 8.5568 84.8091 8.76558C86.0662 9.04414 87.2186 9.3926 88.2662 9.81094C90.0821 10.4383 91.7584 11.2054 93.2951 12.1123C94.8319 13.0889 96.1942 14.2403 97.3821 15.5663C97.9411 16.3341 98.3955 17.1717 98.7452 18.0793C99.1647 18.9868 99.5144 19.9292 99.7943 20.9067C100.844 24.1181 101.264 27.295 101.057 30.4373C100.849 33.5797 100.118 36.5129 98.8624 39.2369C97.677 42.0307 96.0725 44.5454 94.0488 46.7811C92.0252 49.0167 89.687 50.7987 87.0343 52.127C84.4515 53.4552 81.624 54.2599 78.5518 54.541C75.4795 54.8222 72.337 54.4051 69.1243 53.2897C68.5642 50.7064 68.3532 48.1579 68.4914 45.644C68.6994 43.1999 69.047 40.651 69.5343 37.9973C70.8609 37.787 72.3621 37.6465 74.0379 37.5757C75.7137 37.5747 77.2498 37.3992 78.6462 37.0493C80.1123 36.6993 81.299 36.0352 82.2062 35.0571C83.1134 34.1488 83.5315 32.6822 83.4605 30.6572C83.3203 29.7495 83.1451 28.7721 82.935 27.7248Z" fill="#7BA098"/>
<path d="M82.935 22.5436C82.725 21.5661 82.3405 20.7982 81.7815 20.24C81.6418 20.1004 81.3973 19.9609 81.0481 19.8214C80.7687 19.7518 80.5592 19.6821 80.4195 19.6123C80.2099 19.4728 78.9879 19.3339 76.7533 19.1955C74.5188 19.127 71.8653 19.0588 68.7929 18.9907C65.7205 18.9227 62.5084 18.8897 59.1567 18.8917C55.8748 18.8936 53.0119 19.0001 50.5681 19.211C48.5432 19.4217 46.5535 19.9466 44.5988 20.7856C42.714 21.6945 41.4929 23.1616 40.9355 25.1869C40.7967 26.7232 41.0071 28.1545 41.5665 29.4809C42.1957 30.8771 43.2089 31.9239 44.6058 32.6214C46.2123 33.3885 47.8883 33.7017 49.6339 33.5611C51.4494 33.4902 53.2301 33.6288 54.976 33.9769C54.8369 34.9545 54.8026 36.0369 54.8731 37.2239C54.9437 38.4807 54.9794 39.7376 54.9801 40.9945C54.9809 42.2514 54.9467 43.4734 54.8775 44.6605C54.8085 45.9174 54.6345 47.0348 54.3558 48.0125C50.7255 49.2017 47.0947 49.5181 43.4633 48.9616C39.9018 48.4051 36.689 47.185 33.825 45.3014C30.961 43.4177 28.5854 40.9403 26.6982 37.869C24.8809 34.8675 23.9362 31.4465 23.8642 27.6061C23.5135 25.0925 23.512 22.5089 23.8596 19.8552C24.1373 17.2016 24.7992 14.7224 25.8452 12.4175C26.9611 10.1125 28.4962 8.15643 30.4504 6.54925C32.4046 5.0119 34.848 4.1027 37.7806 3.82165C40.2943 3.68051 42.9128 3.57422 45.636 3.50279C48.3592 3.43135 51.3967 3.35973 54.7483 3.28792C58.1699 3.28589 62.0104 3.28362 66.2698 3.2811C70.5992 3.34837 75.5918 3.41525 81.2479 3.48173C82.4349 3.34137 83.622 3.37558 84.8091 3.58436C86.0662 3.86293 87.2186 4.21138 88.2662 4.62973C90.0821 5.2571 91.7584 6.02421 93.2951 6.93105C94.8319 7.90773 96.1942 9.05907 97.3821 10.3851C97.9411 11.1529 98.3955 11.9905 98.7452 12.8981C99.1647 13.8056 99.5144 14.748 99.7943 15.7254C100.844 18.9369 101.264 22.1138 101.057 25.2561C100.849 28.3985 100.118 31.3316 98.8624 34.0557C97.677 36.8494 96.0725 39.3642 94.0488 41.5998C92.0252 43.8355 89.687 45.6175 87.0343 46.9458C84.4515 48.274 81.624 49.0787 78.5518 49.3598C75.4795 49.641 72.337 49.2238 69.1243 48.1085C68.5642 45.5252 68.3532 42.9767 68.4914 40.4628C68.6994 38.0187 69.047 35.4698 69.5343 32.8161C70.8609 32.6058 72.3621 32.4653 74.0379 32.3945C75.7137 32.3935 77.2498 32.218 78.6462 31.868C80.1123 31.518 81.299 30.854 82.2062 29.8759C83.1134 28.9676 83.5315 27.501 83.4605 25.476C83.3203 24.5683 83.1451 23.5909 82.935 22.5436Z" fill="#98CBB4"/>
</svg>
