<svg width="65" height="36" viewBox="0 0 65 36" fill="none" xmlns="http://www.w3.org/2000/svg">
<path d="M22.0722 35.1396C21.0798 35.3566 20.0099 35.4652 18.8625 35.4652C17.498 35.4652 16.0095 35.2946 14.3969 34.9535C14.1798 34.3643 13.8387 33.1238 13.3735 31.2321C12.9083 29.3094 12.5362 28.038 12.2571 27.4177L11.3268 27.3712L10.536 27.4177C10.4119 27.7899 10.2104 28.7047 9.93125 30.1622C9.71417 31.3717 9.49709 32.364 9.28001 33.1393C9.06294 33.8836 8.75282 34.5658 8.34968 35.1861C8.03956 35.2481 7.57439 35.2791 6.95417 35.2791C6.67507 35.2791 6.07035 35.2481 5.14001 35.1861C2.44203 35.062 0.937977 35 0.627864 35C0.627864 34.8449 0.658876 34.4883 0.720898 33.9301C0.782921 33.3409 0.875955 32.6897 1 31.9764L2.02337 26.1153C2.82967 21.3085 3.58944 17.122 4.3027 13.5557C5.04697 9.98939 6.00832 6.22152 7.18675 2.25207C7.62091 2.19005 8.21013 2.15904 8.9544 2.15904H9.2335C11.2492 2.15904 13.2184 2.08151 15.1411 1.92646C15.5133 3.38399 15.8544 4.82601 16.1645 6.25253C16.4746 7.64804 16.7537 8.904 17.0018 10.0204C17.9942 14.331 18.6609 17.1995 19.0021 18.626L22.0722 35.1396ZM12.3501 21.4636C11.6679 15.2613 11.3423 12.1602 11.3733 12.1602L11.3268 11.695C11.3268 11.695 11.2957 12.0671 11.2337 12.8114C11.1407 15.1373 11.0011 16.9824 10.8151 18.3469L10.3964 21.4636H12.3501Z" fill="#423B0B"/>
<path d="M30.6124 10.2995C30.5504 10.4236 30.4728 11.4004 30.3798 13.2301C30.2868 15.0597 30.2403 16.9204 30.2403 18.8121C30.2403 20.7348 30.2868 22.3474 30.3798 23.6499C30.4728 24.4872 30.7209 25.309 31.1241 26.1153C31.5272 26.8905 32.0079 27.4177 32.5661 27.6968C33.6515 27.7589 34.4733 27.2627 35.0315 26.2083H34.985C35.2641 25.6191 35.4036 24.7353 35.4036 23.5568C35.4036 22.6265 35.4657 21.8977 35.5897 21.3705C36.365 21.4946 37.1093 21.5566 37.8225 21.5566L39.9623 21.5101C41.0787 21.5101 42.1331 21.6341 43.1254 21.8822C43.4976 22.9676 43.6837 24.0995 43.6837 25.278C43.6837 27.0456 43.234 28.7202 42.3347 30.3018C41.4663 31.8834 40.2569 33.1703 38.7063 34.1627C37.1558 35.1551 35.4346 35.6822 33.543 35.7443C32.9848 35.8373 32.3335 35.8838 31.5892 35.8838C29.1704 35.8838 27.0461 35.3411 25.2164 34.2557C23.3868 33.1703 22.3634 31.5422 22.1463 29.3715C21.9913 26.2703 21.9137 22.9366 21.9137 19.3703C21.9137 16.4242 21.9292 14.0054 21.9602 12.1137L22.0068 10.0204C21.9757 9.55523 22.0068 9.02804 22.0998 8.43883C22.2238 7.8186 22.3789 7.2759 22.565 6.81074C22.8441 6.09748 23.2007 5.38422 23.6349 4.67096C24.1 3.9577 24.5807 3.36848 25.0769 2.90331C25.7281 2.37612 26.6895 1.92646 27.9609 1.55432C29.1704 1.18219 30.4263 0.996119 31.7288 0.996119C33.8376 0.996119 35.8223 1.4923 37.683 2.48466C39.5436 3.44601 41.0322 4.77949 42.1486 6.48512C43.265 8.15973 43.8232 9.98939 43.8232 11.9741C43.8232 13.1525 43.6061 14.331 43.172 15.5094C41.8695 15.7885 40.7841 15.9281 39.9158 15.9281C38.7374 15.9281 37.1093 15.7265 35.0315 15.3233L34.8919 13.5557C34.8299 12.1292 34.6439 11.0593 34.3337 10.346C34.0546 9.60175 33.4344 9.24512 32.4731 9.27613C32.4421 9.27613 32.3955 9.29164 32.3335 9.32265C32.3025 9.32265 32.2405 9.32265 32.1475 9.32265H32.194C31.2326 9.4777 30.7054 9.80332 30.6124 10.2995Z" fill="#7BA098"/>
<path d="M64.6759 2.43814C64.7379 3.49253 64.7689 4.48489 64.7689 5.41523C64.7689 7.21388 64.6604 8.82647 64.4433 10.253C63.4199 10.0669 62.6136 9.97389 62.0244 9.97389L59.8381 9.92737C59.0318 9.92737 58.6287 9.97389 58.6287 10.0669C58.5666 10.5011 58.5356 11.4159 58.5356 12.8114C58.5356 15.5404 58.6442 22.8901 58.8613 34.8604C57.9619 35.0155 56.9075 35.093 55.6981 35.093H54.3491C52.7985 35.093 51.372 35.2016 50.0696 35.4187C49.9765 35.2636 49.899 34.9535 49.837 34.4883C49.806 33.9921 49.806 33.5425 49.837 33.1393V30.86L49.8835 26.6735C49.8835 21.0294 49.7594 15.5249 49.5114 10.16C49.1702 10.0049 48.6896 9.92737 48.0693 9.92737L46.2086 9.97389C45.1543 9.97389 44.3945 9.89636 43.9293 9.7413C43.8363 9.55523 43.7588 9.04355 43.6967 8.20624C43.6347 7.36894 43.6037 6.42309 43.6037 5.36871C43.6037 3.81814 43.6192 2.70174 43.6502 2.01949H45.6504L47.4646 1.97297H50.0696L52.7675 1.92646C57.3882 1.92646 61.1561 2.09702 64.0712 2.43814H64.6759Z" fill="#474935"/>
</svg>
