<svg width="387" height="412" viewBox="0 0 387 412" fill="none" xmlns="http://www.w3.org/2000/svg">
<g clip-path="url(#clip0_183_6)">
<mask id="mask0_183_6" style="mask-type:luminance" maskUnits="userSpaceOnUse" x="-138" y="0" width="674" height="412">
<path d="M535.741 0H-137.802V412H535.741V0Z" fill="white"/>
</mask>
<g mask="url(#mask0_183_6)">
<path d="M811.345 0H-137.802V580.375H811.345V0Z" fill="#7BA098"/>
<path fill-rule="evenodd" clip-rule="evenodd" d="M305.482 234.974C338.729 269.011 364.489 317.456 357.444 362.094C350.397 406.806 310.545 447.635 263.721 468.462C216.896 489.288 163.173 490.183 122.807 468.387C82.4417 446.516 55.3608 401.953 40.3153 350.15C25.196 298.348 22.1869 239.453 49.2692 206.909C76.3501 174.363 133.524 168.242 182.476 174.885C231.428 181.604 272.161 201.011 305.482 234.974Z" fill="white" fill-opacity="0.9"/>
<path fill-rule="evenodd" clip-rule="evenodd" d="M269.537 349.013C268.128 350.642 266.049 351.852 264.453 353.34C262.778 354.905 260.957 356.273 259.289 357.819C251.927 348.818 241.84 343.299 233.102 335.83C228.959 332.289 225.908 327.485 223.675 322.558C222.53 320.03 221.685 317.428 221.022 314.737C220.724 313.524 220.432 312.316 220.237 311.087C220.002 309.599 219.941 309.472 218.937 308.309C218.504 307.809 217.667 306.349 216.821 306.511C216.108 306.645 214.805 308.815 214.354 309.35C212.19 311.928 210.091 314.582 207.812 317.059C204.323 320.85 201.148 324.58 197.91 328.597C191.287 336.817 184.141 344.553 176.931 352.287C176.397 352.86 175.149 354.543 174.382 354.767C173.447 355.042 171.928 353.897 170.989 353.256C168.718 351.711 166.928 349.796 164.986 347.88C161.198 344.139 158.633 338.891 156.907 333.896C155.875 330.905 155.204 327.807 154.137 324.827C153.694 323.586 152.686 322.06 153.198 320.977C153.349 320.655 154.318 319.799 154.659 319.733C155.065 319.656 155.738 320.209 155.879 320.171C157.219 319.804 156.476 318.401 157.273 317.646C157.725 317.217 160.024 317.28 160.711 317.043C163.222 316.183 165.473 314.54 167.846 313.559C177.782 309.454 187.837 305.46 196.413 298.757C198.639 297.018 200.116 295.712 202.769 294.588C205.452 293.453 208.148 292.44 210.885 291.45C213.3 290.574 215.727 289.756 218.222 289.129C220.919 288.45 224.745 287.592 227.44 288.464C232.732 290.179 234.44 294.539 236.549 299.141C239.399 305.366 242.848 311.256 246.585 316.986C253.775 328.009 262.52 337.901 269.537 349.013Z" fill="#474935"/>
<path fill-rule="evenodd" clip-rule="evenodd" d="M110.156 251.558C109.865 251.41 107.591 252.337 107.208 252.477C105.684 253.043 104.249 253.983 102.813 254.749C103.913 256.087 105.014 257.428 106.114 258.768C107.193 256.122 108.58 253.938 110.156 251.558ZM110.906 268.026C110.532 268.068 113.693 275.668 114.062 276.52C115.405 279.624 116.817 282.698 118.179 285.793C119.498 288.792 121.17 291.552 122.856 294.355C124.297 296.751 125.781 300.469 127.956 302.245C126.581 296.153 126.762 289.147 122.825 284.029C118.741 278.726 114.704 273.547 110.906 268.026ZM269.537 349.284C263.435 339.621 255.798 331.073 249.435 321.583C245.874 316.269 242.406 310.887 239.408 305.23C237.228 301.115 235.871 295.244 232.502 292.099C231.018 290.713 229.433 289.356 227.44 288.736C224.714 287.887 220.961 288.727 218.222 289.399C213.119 290.651 208.134 292.595 203.3 294.635C198.397 296.706 194.212 300.424 189.782 303.413C185.03 306.617 179.887 308.951 174.563 310.996C169.926 312.775 165.802 315.331 161.191 317.122C160.272 317.478 158.397 317.426 157.626 317.893C156.796 318.394 157.123 319.874 156.114 320.42C155.66 320.665 155.508 319.773 155.159 319.788C154.732 319.806 154.343 320.307 153.93 320.624C152.255 321.917 153.281 322.78 153.944 324.559C156.109 330.357 157.271 336.256 160.307 341.73C162.804 346.23 166.378 350.261 170.585 353.239C171.225 353.693 173.312 355.45 174.063 355.333C174.738 355.227 176.115 353.429 176.581 352.941C178.7 350.726 180.637 348.341 182.755 346.122C186.027 342.691 189.177 339.17 192.352 335.692C196.037 331.656 199.3 327.083 202.62 322.77C204.147 320.786 206.114 319.17 207.812 317.33C210.093 314.857 212.19 312.197 214.356 309.621C215.01 308.842 216.108 306.847 217.126 306.871C217.839 306.887 219.097 308.567 219.47 309.094C220.856 311.05 220.851 314.584 221.54 317.028C223.223 322.984 226.259 328.801 230.421 333.398C234.559 337.969 239.86 341.218 244.757 344.893C250.06 348.874 255.083 352.947 259.289 358.088C260.957 356.543 262.778 355.176 264.453 353.612C266.049 352.122 268.128 350.914 269.537 349.284ZM191.004 376.621C192.189 376.633 194.198 377.364 195.26 376.923C192.112 373.44 189.222 370.452 185.239 367.9C181.107 365.251 176.988 362.626 172.976 359.799C164.887 354.106 158.938 347.354 155.559 337.871C154.689 335.429 154.106 332.869 153.469 330.359C153.126 329.006 152.442 322.681 151.284 322.136C150.596 321.813 145.427 325.447 144.607 325.899C142.692 326.958 140.771 327.779 138.791 328.608C134.535 330.39 130.146 331.75 125.635 332.884C120.223 334.246 116.538 331.995 113.185 327.741C109.383 322.916 106.224 317.471 102.745 312.403C101.166 310.098 99.8553 307.797 98.6878 305.254C97.924 303.592 94.8929 299.103 95.9387 297.331C98.9279 299.606 100.003 304.13 102.037 307.178C104.574 310.974 107.433 314.554 109.984 318.347C112.127 321.538 114.316 325.402 117.483 327.696C120.27 329.711 122.917 329.092 125.917 328.185C129.551 327.087 133.318 326.545 136.88 325.184C140.734 323.71 144.383 321.618 148.143 319.912C149.897 319.118 151.995 318.666 153.648 317.673C155.072 316.82 154.859 316.37 154.964 314.551C155.085 312.429 155.226 310.305 155.32 308.182C155.383 306.756 154.612 304.821 155.136 303.757C150.866 304.497 146.694 305.489 142.453 306.366C140.132 306.847 137.893 307.44 135.549 307.816C134.655 307.961 133.432 307.957 132.631 308.346C131.993 308.163 131.667 308.279 131.655 308.695C131.625 308.922 131.577 309.144 131.511 309.364C130.2 309.959 129.44 308.681 128.304 307.456C126.903 305.943 125.854 304.241 124.826 302.464C122.527 298.49 119.877 294.753 117.751 290.666C115.583 286.503 113.822 282.043 111.983 277.721C110.297 273.758 109.218 269.469 107.355 265.6C106.523 263.871 105.468 262.442 104.238 260.984C103.222 259.779 101.66 257.181 100.144 256.627C99.7422 256.481 98.693 256.728 98.2372 256.695C97.3289 256.631 96.5198 256.296 95.5907 256.369C93.5793 256.528 91.3852 257.8 89.7774 258.918C90.8162 259.844 93.4157 260.97 91.5487 262.639C89.7374 264.258 88.7369 261.353 88.0462 260.08C84.7907 262.754 85.2605 266.441 84.8846 270.218C84.688 272.19 84.1712 274.132 83.8389 276.075C83.5988 277.472 83.7676 278.919 83.698 280.346C83.524 283.974 83.1586 287.444 83.176 291.021C83.1951 294.844 83.4561 298.535 83.7606 302.332C84.2756 308.72 85.4554 315.111 86.468 321.451C87.037 325.014 87.8147 328.476 88.5716 331.979C89.4294 335.958 91.0163 339.727 91.9071 343.695C92.8137 342.541 93.4957 342.536 94.9625 342.689C96.0918 342.806 96.8504 342.538 96.7843 344.104C96.7408 345.121 95.8447 345.895 94.8529 346.073C93.5601 346.305 93.1216 345.659 92.4552 344.681C92.2986 346.534 93.5462 348.475 94.0386 350.285C94.5067 352.003 94.8147 353.685 95.5994 355.328C96.365 356.931 97.0209 358.513 97.7952 360.101C98.1519 360.832 98.486 361.573 98.8461 362.301C99.0288 362.67 99.2429 363.178 99.5161 363.489C100.155 364.219 100.052 363.865 100.8 364.28C102.429 365.185 101.816 364.959 101.855 366.828C101.891 368.669 102.836 370.024 104.351 371.059C107.565 373.258 110.737 373.869 114.391 374.979C117.796 376.015 121.382 376.903 124.987 376.882C129.404 376.857 133.76 376.278 138.176 376.218C143.047 376.154 147.966 376.182 152.827 376.349C154.83 376.419 156.69 376.507 158.623 377.019C160.869 377.614 163.041 377.378 165.355 377.287C170.293 377.096 175.4 376.715 180.272 376.68C183.779 376.655 187.482 376.41 191.004 376.621ZM319.026 378.535C319.902 379 321.87 378.808 322.753 378.68C324.308 378.453 324.473 377.837 325.46 376.452C327.158 374.064 328.536 371.778 329.535 369.012C331.445 363.719 332.227 358.306 333.065 352.769C333.998 346.618 332.295 340.24 331.686 334.131C331.545 332.73 331.353 331.341 331.132 329.948C331 329.118 330.965 326.288 330.419 325.567C329.366 324.183 324.479 325.301 322.556 325.426C317.19 325.776 311.789 325.858 306.426 325.919C303.568 325.952 300.691 326.07 297.861 326.093C296.561 326.103 295.289 326.039 293.984 325.912C293.547 325.87 293.121 325.769 292.682 325.745C291.176 325.663 291.289 325.443 290.901 326.777C290.219 329.113 290.742 332.084 290.565 334.508C290.325 337.748 290.196 341.034 290.255 344.28C290.309 347.281 290.206 350.273 290.319 353.281C290.366 354.525 290.502 355.54 290.829 356.729C291.202 358.074 291.611 361.215 292.534 362.146C292.639 362.252 293.425 362.005 293.634 362.268C293.956 362.675 293.897 363.535 294.118 363.798C294.831 364.647 296.308 364.715 297.38 365.096C300.317 366.144 303.014 367.282 305.784 368.696C308.259 369.959 312.248 371.033 313.736 373.524C314.418 374.666 314.51 376.171 315.138 377.35C315.852 378.692 314.423 377.99 316.174 378.535C316.962 378.781 318.218 378.535 319.026 378.535ZM58.1239 363.355C57.9012 366.454 56.156 369.408 55.5487 372.454C55.2634 373.881 54.7814 375.284 54.4473 376.702C54.1272 378.064 52.9683 379.675 53.0849 381.023C57.36 379.5 61.6891 379.117 66.1556 378.706C70.3907 378.316 74.8624 378.161 79.0609 378.159C83.3395 378.156 87.9139 377.738 92.3195 377.674C96.9252 377.606 101.602 377.487 106.142 377.009C103.769 375.251 100.798 373.599 99.0445 371.152C97.1392 368.492 96.1492 365.16 94.4736 362.353C91.1085 356.72 88.9683 349.732 87.204 343.403C83.644 330.629 79.6647 318.091 78.7043 304.84C76.879 305.775 75.4314 309.402 74.5161 311.209C73.3504 313.515 72.7396 316.015 71.981 318.465C70.4203 323.515 69.3397 328.749 67.4275 333.75C63.7736 343.309 61.4246 353.61 58.1239 363.355ZM290.139 288.903C290.93 294.616 292.587 300.403 292.651 306.185C292.665 307.458 292.449 308.869 292.714 310.124C292.997 311.463 293.918 312.648 294.45 313.921C295.294 315.94 297.431 320.081 295.369 321.793C295.327 320.169 293.841 318.105 293.093 316.685C291.964 314.546 290.481 312.587 289.258 310.5C286.699 306.131 283.829 301.857 280.529 298.005C277.315 294.254 273.611 290.926 270.202 287.354C269.179 286.28 260.964 275.949 260.637 276.094C263.185 285.921 267.517 294.473 273.445 302.701C276.351 306.735 279.84 309.39 283.377 312.807C286.323 315.653 291.877 318.695 290.857 323.36C295.463 322.916 300.039 322.209 304.686 322.209C303.921 316.326 303.336 310.535 301.972 304.749C300.424 298.179 299.374 291.411 298.062 284.783C296.726 278.016 294.457 271.464 293.044 264.709C291.692 258.241 290.532 251.785 289.542 245.245C288.722 248.869 289.025 252.85 288.734 256.547C288.437 260.324 288.466 264.032 288.564 267.831C288.748 274.889 289.5 281.862 290.139 288.903ZM310.096 255.254C310.122 252.234 310.707 249.254 310.888 246.239C310.943 245.315 311.864 239.005 311.006 238.676C310.3 240.217 310.134 242.187 309.494 243.802C308.852 245.418 307.996 246.955 307.38 248.58C306.049 252.102 305.589 256.086 305.445 259.83C305.121 268.298 304.953 276.745 305.522 285.213C305.765 288.842 305.953 292.478 305.887 296.114C305.812 300.116 305.2 303.588 305.944 307.559C306.68 311.487 307.143 315.402 307.389 319.39C307.561 322.189 307.63 321.99 310.3 321.793C312.227 321.651 314.173 321.802 316.104 321.715C315.201 310.807 315.053 299.878 313.612 289.011C312.876 283.467 312.857 277.845 311.944 272.322C311.49 269.579 310.728 266.89 310.289 264.143C309.819 261.194 310.051 258.227 310.096 255.254ZM114.875 248.391C120.015 248.834 125.482 250.371 130.749 249.357C129.88 249.005 127.608 248.521 128.631 247.132C129.671 245.72 131.424 247.512 132.461 247.325C133.099 247.212 134.512 244.539 134.907 243.985C135.801 242.727 135.909 242.507 137.519 242.185C139.076 241.874 139.429 242.211 139.628 240.661C139.854 238.88 139.238 236.877 139.299 235.054C139.429 231.131 140.694 227.691 141.872 224C136.87 225.089 131.977 226.379 126.86 227.082C124.674 227.382 121.271 228.073 119.284 226.586C118.767 226.2 118.851 225.677 118.428 225.23C117.718 224.478 116.404 223.7 115.398 223.486C109.209 222.168 108.606 230.992 111.706 234.293C112.484 235.12 113.565 235.529 114.36 236.286C115.421 237.298 115.508 238.363 115.663 239.907C115.954 242.8 115.559 245.707 114.325 248.352L114.875 248.391ZM189.97 290.045C191.797 290.391 193.704 290.313 195.536 290.609C196.187 290.713 198.138 291.081 198.71 290.699C199.584 290.118 199.893 287.987 200.307 286.995C201.033 285.249 202.061 283.728 202.754 281.949C205.585 274.691 208.226 267.403 211.65 260.39C210.337 260.049 209.329 260.037 208.007 259.859C206.629 259.677 205.379 258.862 204.066 258.51C202.816 258.178 201.508 258.263 200.269 257.877C199.587 257.663 199.002 257.189 198.329 257.024C197.259 256.761 196.008 256.606 195.371 257.309C194.717 258.032 194.487 260.011 194.132 260.942C193.186 263.426 192.086 265.823 191.293 268.362C190.577 270.655 189.897 272.921 189.267 275.232C188.603 277.674 187.291 279.687 186.492 282.017C185.885 283.793 185.311 285.606 185.22 287.498C185.133 289.345 184.863 289.463 186.709 289.758C187.642 289.907 189.093 290.461 189.97 290.045ZM310.167 376.466C310.642 376.687 311.091 376.657 311.512 376.377C307.387 374.635 303.375 372.217 299.072 371.021C295.035 369.9 291.111 368.562 287.222 367.18C284.061 366.059 281.221 365.185 278.364 363.209C276.629 362.01 275.088 360.663 273.896 358.912C272.57 356.96 272.274 354.186 270.839 352.43C268.899 354.558 266.621 356.172 264.326 357.866C263.533 358.45 261.627 359.728 261.356 360.633C261.013 361.777 261.932 362.872 262.386 364.029C263.548 366.993 264.116 369.956 264.747 373.037C264.999 374.271 265.546 376.128 266.56 376.645C267.484 377.117 270.158 376.774 271.307 376.687C277.303 376.232 283.193 375.768 289.225 376.18C296.051 376.648 303.359 376.972 310.167 376.466ZM322.144 321.543C323.233 321.548 324.298 321.41 325.383 321.41C324.757 318.485 326.222 314.697 326.741 311.776C327.322 308.507 327.764 305.129 328.152 301.834C328.969 294.896 329.338 288.041 329.351 281.051C329.359 274.289 330.591 268.108 332.315 261.607C334.167 254.624 337.198 248.345 339.705 241.611C336.956 243.064 335.433 246.467 333.988 249.068C332.162 252.356 330.944 255.997 330.2 259.689C328.761 266.811 327.183 273.955 325.521 281.065C323.793 288.468 322.777 295.939 320.795 303.282C319.829 306.863 318.516 311.268 318.443 314.96C318.413 316.488 317.954 319.687 318.644 321.014C319.292 322.255 320.724 321.67 322.144 321.543ZM157.652 312.358C157.595 313.118 157.541 313.842 157.405 314.593C158.915 314.579 160.826 313.012 162.12 312.309C163.698 311.452 165.276 310.507 166.82 309.646C169.797 307.983 173.178 306.887 176.357 305.522C180.009 303.952 183.367 302.057 186.859 300.166C188.079 299.507 196.848 295.705 196.7 294.668C194.776 294.603 192.852 294.539 190.925 294.475C189.276 294.421 186.718 294.793 185.138 294.283C184.274 294.003 183.301 292.974 182.974 292.168C182.65 291.369 183.377 287.7 182.955 287.467C180.801 289.667 179.445 292.591 177.519 294.966C175.391 297.589 172.64 299.12 169.609 300.515C166.261 302.053 162.795 303.246 159.375 304.565C157.932 305.122 157.96 305.44 157.835 307.023C157.694 308.791 157.709 310.586 157.652 312.358ZM331.621 378.896C335.249 379.285 338.969 379.063 342.626 379.367C343.958 379.477 345.802 379.642 344.462 381.428C343.62 382.554 340.92 382.192 339.695 382.271C336.404 382.479 332.923 382.368 329.625 382.319C328.931 382.309 328.164 382.102 327.463 382.149C326.654 382.203 325.683 382.784 324.945 382.781C324.491 382.777 324.327 382.298 323.936 382.253C323.081 382.157 322.227 382.088 321.364 382.088C308.333 382.091 295.484 381.828 282.486 381.815C276.271 381.808 269.955 381.701 263.743 381.409C262.438 381.348 255.009 381.614 255.214 379.265C255.32 378.055 257.745 377.884 258.629 377.755C259.285 377.661 259.966 377.675 260.623 377.641C262.369 377.547 263.132 377.968 262.765 376.057C261.368 368.812 258.866 362.825 253.519 357.615C249.147 353.356 243.881 349.492 238.929 345.934C232.918 341.615 228.039 337.072 224.47 330.463C222.384 326.604 220.641 322.658 219.569 318.391C219.183 316.855 219.174 315.109 218.702 313.628C218.339 312.49 217.51 311.693 217.023 310.511C211.041 320.505 203.112 328.867 195.843 337.877C192.368 342.183 188.406 346.271 184.254 350.015C183.024 351.128 181.874 352.289 180.724 353.484C179.763 354.485 178.236 355.375 177.425 356.485C176.645 357.551 176.837 357.5 178.024 358.346C179.589 359.463 181.317 360.393 182.909 361.483C185.453 363.227 188.23 364.699 190.504 366.797C192.966 369.065 195.115 371.693 197.266 374.25C198.7 375.956 200.58 378.144 200.941 380.298C201.059 381.012 201.513 382.775 200.915 383.298C200.403 383.745 200.455 383.574 199.82 383.303C198.988 382.946 198.743 382.128 197.727 381.736C195.127 380.739 191.98 381.082 189.276 381.07C186.569 381.057 183.84 381.362 181.135 381.35C174.958 381.325 168.911 381.825 162.736 382.093C156.176 382.378 149.537 381.694 143 381.792C138.157 381.863 133.184 381.501 128.206 381.771C125.647 381.909 123.133 381.588 120.636 381.552C117.368 381.505 114.012 381.95 110.715 382.013C105.305 382.117 99.9597 382.117 94.5171 382.248C82.8071 382.528 71.1615 382.817 59.4463 383.003C57.8838 383.028 56.1734 382.974 54.6283 383.15C52.9892 383.338 53.8366 383.686 52.7108 384.276C49.5632 385.928 50.2888 379.804 50.3653 378.6C50.769 372.145 52.4081 365.815 54.376 359.688C56.2447 353.876 57.7602 347.794 59.3419 341.857C61.0731 335.36 63.3299 329.127 65.3778 322.693C67.478 316.1 69.1866 309.249 72.9989 303.404C73.8671 302.074 74.765 300.642 76.1621 299.801C77.7264 298.861 77.7942 299.411 77.7925 297.688C77.7925 296.067 77.8917 293.9 77.5089 292.353C77.1644 290.955 77.2166 291.784 76.4388 290.779C75.8055 289.963 75.1425 289.404 74.6867 288.414C71.8957 291.246 65.5031 289.751 62.8044 287.711C59.5019 285.215 56.9877 281.004 56.0655 276.994C55.326 273.774 56.2343 267.635 59.7977 266.085C61.5342 265.33 67.9164 264.759 68.1722 262.3C68.3027 261.029 66.0564 259.243 65.5396 258.152C64.5792 256.128 63.657 253.437 63.389 251.219C62.8688 246.888 64.8332 242.048 67.9634 239.124C73.7053 233.759 83.8093 231.007 91.1955 234.41C89.6347 228.447 88.6917 223.302 89.4782 217.098C90.155 211.754 93.3078 208.764 97.6456 206.101C105.049 201.558 115.115 199.765 123.58 201.086C125.503 201.387 127.349 202.031 129.13 202.543C131.718 203.288 134.815 203.039 137.258 204.249C139.029 205.126 140.374 206.872 141.93 208.038C143.746 209.399 145.255 211.431 146.518 213.311C149.217 217.328 148.16 224.785 145.902 228.818C145.418 229.683 144.82 230.412 144.019 231.002C143.184 231.616 141.912 231.808 141.482 232.605C140.381 234.645 141.444 239.064 141.59 241.27C141.761 243.832 140.466 245.755 137.562 245.961C135.883 246.079 135.829 245.104 135.024 247.109C134.503 248.41 134.03 249.827 133.277 251.019C131.726 253.475 128.885 253.235 126.298 253.169C123.301 253.092 120.35 252.618 117.352 252.319C118.144 254.855 120.312 256.826 121.664 259.085C123.495 262.141 124.596 264.676 124.894 268.237C125.121 270.973 124.629 273.135 122.757 275.171C121.983 276.014 121.295 276.056 121.487 277.027C121.605 277.62 122.63 278.599 122.993 279.072C123.952 280.325 125.068 281.474 125.913 282.813C129.163 287.958 130.124 295.803 130.133 301.794C130.133 302.069 130.279 302.654 130.159 302.937C130.068 303.146 129.386 303.811 129.376 303.869C129.243 304.64 129.993 305.959 131.171 306.09C132.41 306.227 134.676 305.193 135.827 304.856C137.668 304.311 139.548 303.91 141.385 303.352C144.353 302.452 147.308 301.733 150.327 301.026C151.691 300.708 153.062 300.443 154.43 300.144C155.989 299.804 156.712 299.15 157.516 300.736C158.207 302.097 157.777 302.342 159.449 301.656C161.109 300.976 162.731 300.132 164.351 299.362C167.21 298.006 170.613 296.797 173.079 294.795C177.19 291.456 178.713 286.137 182.648 282.593C183.745 281.606 184.399 281.589 185.091 280.223C185.834 278.761 186.215 276.884 186.605 275.311C187.289 272.555 187.774 269.789 188.394 267.036C189.166 263.607 190.835 260.5 192.051 257.229C192.524 255.953 192.772 254.335 193.535 253.189C193.739 252.885 194.125 252.714 194.284 252.462C194.828 251.6 194.823 251.362 194.964 250.324C195.623 245.473 198.519 248.025 201.682 249.137C203.015 249.607 209.343 252.646 206.926 254.667C209.808 255.504 214.422 255.05 214.384 259.179C214.363 261.295 213.098 263.558 212.419 265.539C211.816 267.297 211.233 269.064 210.62 270.818C209.279 274.665 207.65 278.397 206.34 282.254C205.743 284.012 205.249 285.812 204.419 287.471C203.685 288.934 201.91 290.548 201.618 292.149C209.296 288.873 216.399 284.137 224.991 284.438C228.754 284.571 232.17 286.153 234.247 289.462C236.852 293.61 238.568 298.254 241.113 302.44C250.377 317.666 261.426 331.501 271.596 346.099C272.377 347.22 273.381 348.28 273.652 349.667C273.83 350.571 273.487 351.476 273.698 352.344C274.138 354.151 276.361 356.405 277.868 357.443C280.758 359.432 285.455 362.236 289.06 361.989C286.796 356.55 286.827 350.59 286.932 344.788C287.033 339.278 287.628 333.812 288.334 328.357C288.494 327.123 288.633 325.98 288.988 324.784C289.396 323.412 289.954 323.541 288.736 322.309C286.859 320.41 284.628 318.847 282.737 316.923C278.648 312.765 274.456 309.507 271.237 304.541C268.175 299.817 264.945 294.957 262.68 289.786C260.347 284.461 259.414 278.774 258.255 273.137C257.786 270.848 256.072 268.294 256.416 265.904C256.851 262.885 258.252 265.083 258.823 266.709C260.561 271.669 264.634 276.11 268.006 280.099C271.651 284.409 276.107 288.015 279.913 292.2C284.054 296.757 286.892 301.994 290.575 306.859C290.575 300.821 288.513 294.673 287.671 288.701C286.93 283.444 286.697 278.17 286.227 272.891C285.162 260.897 286.083 248.551 287.577 236.643C288.287 230.988 287.885 225.465 287.906 219.791C287.913 217.986 287.165 213.822 288.118 212.221C289.942 209.15 291.007 215.862 291.099 216.863C291.651 222.825 290.661 228.72 291.167 234.655C291.696 240.854 292.841 246.88 293.817 253.007C294.873 259.64 296.594 266.126 298.24 272.632C299.969 279.464 301.424 286.438 303.347 293.214C303.865 291.086 303.138 288.468 302.993 286.299C302.788 283.194 302.388 280.089 302.353 276.975C302.297 272.014 302.259 266.961 302.539 262.023C302.816 257.154 302.732 252.055 304.225 247.365C304.933 245.139 305.972 242.967 306.988 240.871C308.243 238.286 308.687 235.778 309.381 233.03C309.976 230.675 310.846 228.382 311.243 225.98C311.49 224.485 312.177 220.076 313.886 223.416C314.879 225.357 314.449 228.231 314.477 230.314C314.514 232.985 314.105 235.581 314.042 238.241C313.92 243.459 313.832 248.671 313.444 253.88C313.035 259.346 313.392 264.244 314.432 269.629C315.568 275.523 315.902 281.431 316.492 287.397C316.795 290.478 317.308 293.542 317.555 296.628C317.688 298.262 317.016 302.946 318.185 304.111C318.298 301.28 319.109 298.448 319.723 295.691C320.452 292.424 320.746 288.99 321.282 285.676C322.152 280.308 323.838 275.182 324.954 269.873C327.254 258.932 329.164 244.868 338.8 237.705C340.062 236.769 341.447 236.078 342.811 235.306C343.582 234.87 344.728 233.74 345.612 233.541C346.576 233.327 346.978 233.495 347.368 234.612C347.913 236.172 346.917 236.899 345.986 238.032C342.767 241.95 341.393 246.974 339.406 251.569C334.854 262.091 332.841 273.189 332.818 284.564C332.806 290.518 332.395 296.261 331.76 302.179C331.077 308.547 330.177 315.284 328.242 321.41C330.182 321.846 332.288 321.196 332.815 323.452C332.944 324.007 332.71 324.662 332.853 325.384C332.992 326.084 333.328 326.782 333.525 327.471C333.934 328.899 334.151 330.305 334.349 331.769C335.119 337.429 336.439 342.811 336.58 348.55C336.711 353.855 335.672 359.228 334.715 364.431C333.751 369.672 330.986 374.138 328.811 378.876C329.747 378.876 330.683 378.887 331.621 378.896Z" fill="black"/>
<path fill-rule="evenodd" clip-rule="evenodd" d="M208.459 366.851C207.427 367.143 202.444 367.693 202.446 369.258C202.446 370.194 207.422 370.177 208.302 370.278C208.355 369.136 208.407 367.994 208.459 366.851ZM219.456 377.641C222.327 378.187 226.224 377.42 228.06 374.887C228.918 373.705 229.325 371.905 229.603 370.494C229.871 369.148 230.694 365.791 230.134 364.53C229.447 362.981 222.849 364.6 220.928 364.778C217.577 365.087 214.111 365.124 210.758 364.905C210.758 368.368 210.58 371.743 212.618 374.725C214.086 376.876 216.846 377.383 219.456 377.641ZM218.88 381.919C215.76 380.777 212.484 381.519 210.453 378.17C209.938 377.32 209.503 376.407 209.192 375.461C209.038 375.049 208.92 374.626 208.837 374.191C208.995 373.258 208.654 372.995 207.81 373.4C206.157 373.08 204.344 374.215 202.602 373.881C198.378 373.068 199.145 367.016 201.981 364.922C202.54 364.508 203.1 364.393 203.74 364.187C205.153 363.737 205.919 364.24 207.212 364.113C208.256 364.01 208.543 362.913 209.665 362.431C210.401 362.116 211.421 362.141 212.193 362.107C216.237 361.942 220.293 361.944 224.362 361.679C226.261 361.557 228.309 361.859 230.169 361.533C231.039 361.382 230.913 360.802 231.738 361.31C232.592 361.836 232.224 363.784 232.18 364.56C231.931 369.047 231.663 373.862 229.26 377.787C227.061 381.376 222.732 381.743 218.88 381.919Z" fill="black"/>
<path fill-rule="evenodd" clip-rule="evenodd" d="M54.1272 383.155C55.1311 383.144 56.1351 383.134 57.1338 383.123C56.1299 383.134 55.1276 383.144 54.1272 383.155Z" fill="black"/>
<path fill-rule="evenodd" clip-rule="evenodd" d="M332.824 287.453C332.822 286.489 332.82 285.525 332.818 284.564C332.82 285.528 332.822 286.491 332.824 287.453Z" fill="black"/>
<path fill-rule="evenodd" clip-rule="evenodd" d="M77.5124 291.413C77.5089 292.353 77.5072 293.293 77.5037 294.229C77.5054 293.289 77.5089 292.351 77.5124 291.413Z" fill="black"/>
<path fill-rule="evenodd" clip-rule="evenodd" d="M160.94 382.091C161.739 382.091 162.538 382.093 163.333 382.095C162.533 382.095 161.737 382.093 160.94 382.091Z" fill="black"/>
<path fill-rule="evenodd" clip-rule="evenodd" d="M112.456 381.9C113.255 381.902 114.053 381.903 114.849 381.907C114.048 381.905 113.253 381.902 112.456 381.9Z" fill="black"/>
<path fill-rule="evenodd" clip-rule="evenodd" d="M287.038 342.889C287.003 343.523 286.967 344.157 286.932 344.788C286.968 344.155 287.003 343.521 287.038 342.889Z" fill="black"/>
<path fill-rule="evenodd" clip-rule="evenodd" d="M331.621 378.896C331.003 378.889 330.386 378.883 329.77 378.876C330.389 378.619 331.007 378.629 331.621 378.896Z" fill="black"/>
<path fill-rule="evenodd" clip-rule="evenodd" d="M276.835 381.703C277.278 381.696 277.72 381.689 278.161 381.682C277.715 381.689 277.275 381.696 276.835 381.703Z" fill="black"/>
<path fill-rule="evenodd" clip-rule="evenodd" d="M332.583 295.277C332.594 294.798 332.606 294.32 332.616 293.841C332.606 294.322 332.594 294.8 332.583 295.277Z" fill="black"/>
<path fill-rule="evenodd" clip-rule="evenodd" d="M291.167 234.655C291.13 234.161 291.094 233.667 291.057 233.174C291.094 233.669 291.13 234.163 291.167 234.655Z" fill="black"/>
<path fill-rule="evenodd" clip-rule="evenodd" d="M332.803 289.342C332.808 288.846 332.815 288.351 332.82 287.857C332.815 288.353 332.808 288.847 332.803 289.342Z" fill="black"/>
<path fill-rule="evenodd" clip-rule="evenodd" d="M193.525 381.089C193.92 381.094 194.313 381.101 194.703 381.106C194.31 381.099 193.916 381.094 193.525 381.089Z" fill="black"/>
<path fill-rule="evenodd" clip-rule="evenodd" d="M294.956 381.896C295.341 381.903 295.726 381.912 296.107 381.921C295.72 381.912 295.339 381.905 294.956 381.896Z" fill="black"/>
<path fill-rule="evenodd" clip-rule="evenodd" d="M336.537 347.06C336.509 346.625 336.481 346.19 336.453 345.756C336.481 346.191 336.509 346.625 336.537 347.06Z" fill="black"/>
<path fill-rule="evenodd" clip-rule="evenodd" d="M329.625 382.319C329.939 382.318 330.252 382.316 330.562 382.314C330.248 382.318 329.937 382.318 329.625 382.319Z" fill="black"/>
<path fill-rule="evenodd" clip-rule="evenodd" d="M286.935 381.917C287.245 381.908 287.555 381.902 287.863 381.895C287.551 381.902 287.242 381.908 286.935 381.917Z" fill="black"/>
<path fill-rule="evenodd" clip-rule="evenodd" d="M217.189 381.679C217.53 381.677 217.871 381.675 218.21 381.674C217.867 381.675 217.528 381.677 217.189 381.679Z" fill="black"/>
<path fill-rule="evenodd" clip-rule="evenodd" d="M138.425 381.679C138.749 381.68 139.074 381.682 139.394 381.686C139.069 381.684 138.747 381.68 138.425 381.679Z" fill="black"/>
<path fill-rule="evenodd" clip-rule="evenodd" d="M119.265 381.731C119.595 381.712 119.926 381.693 120.253 381.675C119.921 381.694 119.594 381.712 119.265 381.731Z" fill="black"/>
<path fill-rule="evenodd" clip-rule="evenodd" d="M210.998 255.548C210.505 255.504 210.013 255.463 209.519 255.419C210.013 255.454 210.535 255.163 210.998 255.548Z" fill="black"/>
<path fill-rule="evenodd" clip-rule="evenodd" d="M302.699 258.538C302.666 258.965 302.633 259.391 302.6 259.816C302.633 259.389 302.666 258.963 302.699 258.538Z" fill="black"/>
<path fill-rule="evenodd" clip-rule="evenodd" d="M332.924 276.287C332.957 275.883 332.991 275.48 333.024 275.079C332.991 275.483 332.957 275.885 332.924 276.287Z" fill="black"/>
<path fill-rule="evenodd" clip-rule="evenodd" d="M302.505 265.142C302.47 265.567 302.435 265.992 302.4 266.416C302.435 265.99 302.47 265.567 302.505 265.142Z" fill="black"/>
<path fill-rule="evenodd" clip-rule="evenodd" d="M332.719 292.577C332.716 292.167 332.712 291.756 332.71 291.347C332.975 291.756 332.964 292.167 332.719 292.577Z" fill="black"/>
<path fill-rule="evenodd" clip-rule="evenodd" d="M287.045 351.561C287.041 351.972 287.038 352.384 287.033 352.793C286.761 352.379 286.815 351.968 287.045 351.561Z" fill="black"/>
<path fill-rule="evenodd" clip-rule="evenodd" d="M318.008 303.933C317.961 303.515 317.912 303.099 317.865 302.683C317.912 303.101 317.961 303.517 318.008 303.933Z" fill="black"/>
<path fill-rule="evenodd" clip-rule="evenodd" d="M61.623 265.69C61.3011 266.115 60.8626 265.824 60.4798 265.875C60.8626 265.814 61.2419 265.751 61.623 265.69Z" fill="black"/>
<path fill-rule="evenodd" clip-rule="evenodd" d="M285.9 267.44C285.937 267.786 285.975 268.131 286.013 268.477C285.975 268.129 285.937 267.784 285.9 267.44Z" fill="black"/>
<path fill-rule="evenodd" clip-rule="evenodd" d="M84.8029 233.059C84.394 233.068 83.9851 233.075 83.5762 233.084C83.9816 232.845 84.3887 232.777 84.8029 233.059Z" fill="black"/>
<path fill-rule="evenodd" clip-rule="evenodd" d="M302.496 271.13C302.468 271.494 302.442 271.856 302.416 272.218C302.442 271.854 302.468 271.492 302.496 271.13Z" fill="black"/>
<path fill-rule="evenodd" clip-rule="evenodd" d="M291.276 226.572C291.308 226.241 291.341 225.909 291.372 225.58C291.339 225.912 291.308 226.241 291.276 226.572Z" fill="black"/>
<path fill-rule="evenodd" clip-rule="evenodd" d="M288.063 225.535C288.03 225.893 287.998 226.254 287.967 226.61C287.998 226.252 288.03 225.893 288.063 225.535Z" fill="black"/>
<path fill-rule="evenodd" clip-rule="evenodd" d="M110.368 201.556C109.952 201.607 109.537 201.657 109.121 201.706C109.537 201.655 109.952 201.607 110.368 201.556Z" fill="black"/>
<path fill-rule="evenodd" clip-rule="evenodd" d="M314.383 234.398C314.409 234.064 314.435 233.73 314.462 233.397C314.435 233.731 314.409 234.064 314.383 234.398Z" fill="black"/>
<path fill-rule="evenodd" clip-rule="evenodd" d="M66.2826 289.521C66.5297 289.524 66.775 289.528 67.0169 289.531C66.7698 289.528 66.5262 289.524 66.2826 289.521Z" fill="black"/>
<path fill-rule="evenodd" clip-rule="evenodd" d="M288.075 330.744C288.051 331.113 288.026 331.483 288 331.852C288.026 331.482 288.051 331.113 288.075 330.744Z" fill="black"/>
<path fill-rule="evenodd" clip-rule="evenodd" d="M313.171 258.766C313.16 258.409 313.151 258.053 313.141 257.698C313.151 258.054 313.16 258.409 313.171 258.766Z" fill="black"/>
<path fill-rule="evenodd" clip-rule="evenodd" d="M120.848 200.712C120.467 200.712 120.088 200.712 119.71 200.712C120.089 200.451 120.469 200.458 120.848 200.712Z" fill="black"/>
<path fill-rule="evenodd" clip-rule="evenodd" d="M222.154 284.609C221.739 284.619 221.324 284.63 220.909 284.64C221.317 284.351 221.733 284.344 222.154 284.609Z" fill="black"/>
<path fill-rule="evenodd" clip-rule="evenodd" d="M258.476 381.075C258.723 381.078 258.969 381.083 259.212 381.09C258.965 381.085 258.72 381.08 258.476 381.075Z" fill="black"/>
<path fill-rule="evenodd" clip-rule="evenodd" d="M267.756 381.506C268.001 381.498 268.246 381.489 268.49 381.482C268.243 381.491 267.999 381.499 267.756 381.506Z" fill="black"/>
<path fill-rule="evenodd" clip-rule="evenodd" d="M122.55 381.679C122.807 381.684 123.063 381.691 123.317 381.698C123.06 381.691 122.806 381.684 122.55 381.679Z" fill="black"/>
<path fill-rule="evenodd" clip-rule="evenodd" d="M336.323 342.935C336.286 342.583 336.249 342.23 336.213 341.878C336.249 342.232 336.286 342.583 336.323 342.935Z" fill="black"/>
<path fill-rule="evenodd" clip-rule="evenodd" d="M302.809 283.526C302.839 283.862 302.868 284.198 302.896 284.532C302.868 284.196 302.839 283.861 302.809 283.526Z" fill="black"/>
<path fill-rule="evenodd" clip-rule="evenodd" d="M315.707 277.76C315.667 277.405 315.627 277.048 315.587 276.693C315.627 277.05 315.667 277.405 315.707 277.76Z" fill="black"/>
<path fill-rule="evenodd" clip-rule="evenodd" d="M124.633 381.891C124.89 381.888 125.149 381.882 125.405 381.879C125.146 381.884 124.888 381.888 124.633 381.891Z" fill="black"/>
<path fill-rule="evenodd" clip-rule="evenodd" d="M218.88 381.919C219.13 381.907 219.383 381.896 219.631 381.886C219.379 381.896 219.129 381.908 218.88 381.919Z" fill="black"/>
<path fill-rule="evenodd" clip-rule="evenodd" d="M313.602 251.755C313.59 251.393 313.579 251.033 313.567 250.672C313.579 251.035 313.59 251.395 313.602 251.755Z" fill="black"/>
<path fill-rule="evenodd" clip-rule="evenodd" d="M100.092 382.126C100.344 382.124 100.597 382.123 100.845 382.121C100.593 382.123 100.343 382.124 100.092 382.126Z" fill="black"/>
<path fill-rule="evenodd" clip-rule="evenodd" d="M313.496 382.123C313.755 382.126 314.014 382.128 314.272 382.131C314.011 382.13 313.753 382.126 313.496 382.123Z" fill="black"/>
<path fill-rule="evenodd" clip-rule="evenodd" d="M319.1 382.093C319.351 382.11 319.601 382.128 319.85 382.145C319.598 382.128 319.349 382.11 319.1 382.093Z" fill="black"/>
<path fill-rule="evenodd" clip-rule="evenodd" d="M321.364 382.088C321.62 382.095 321.876 382.103 322.126 382.109C321.87 382.102 321.618 382.095 321.364 382.088Z" fill="black"/>
<path fill-rule="evenodd" clip-rule="evenodd" d="M332.987 279.19C332.97 278.835 332.954 278.48 332.937 278.127C332.954 278.482 332.97 278.835 332.987 279.19Z" fill="black"/>
<path fill-rule="evenodd" clip-rule="evenodd" d="M114.875 248.391C115.548 248.448 116.223 248.507 116.895 248.565C116.221 248.507 115.548 248.448 114.875 248.391Z" fill="black"/>
<path fill-rule="evenodd" clip-rule="evenodd" d="M305.12 277.69C305.141 278.332 305.161 278.976 305.182 279.617C305.161 278.973 305.141 278.332 305.12 277.69Z" fill="black"/>
<path fill-rule="evenodd" clip-rule="evenodd" d="M319.026 378.535C319.728 378.579 320.431 378.62 321.136 378.664C320.428 378.695 319.709 378.897 319.026 378.535Z" fill="black"/>
<path fill-rule="evenodd" clip-rule="evenodd" d="M314.864 302.471C314.869 301.858 314.874 301.244 314.879 300.633C314.874 301.246 314.869 301.858 314.864 302.471Z" fill="black"/>
<path fill-rule="evenodd" clip-rule="evenodd" d="M313.063 321.745C313.68 321.752 314.298 321.76 314.914 321.769C314.296 321.76 313.68 321.752 313.063 321.745Z" fill="black"/>
<path fill-rule="evenodd" clip-rule="evenodd" d="M157.697 310.96C157.682 311.428 157.666 311.895 157.652 312.361C157.666 311.893 157.682 311.426 157.697 310.96Z" fill="black"/>
<path fill-rule="evenodd" clip-rule="evenodd" d="M323.334 291.166C323.309 291.631 323.283 292.095 323.259 292.558C323.285 292.092 323.309 291.629 323.334 291.166Z" fill="black"/>
<path fill-rule="evenodd" clip-rule="evenodd" d="M310.167 376.466C310.616 376.434 311.065 376.405 311.512 376.375C311.175 376.647 310.836 376.668 310.167 376.466Z" fill="black"/>
<path fill-rule="evenodd" clip-rule="evenodd" d="M307.162 315.653C307.194 316.156 307.223 316.657 307.255 317.156C307.223 316.655 307.194 316.154 307.162 315.653Z" fill="black"/>
<path fill-rule="evenodd" clip-rule="evenodd" d="M139.283 236.502C139.288 236.018 139.294 235.535 139.299 235.052C139.294 235.536 139.288 236.02 139.283 236.502Z" fill="black"/>
<path fill-rule="evenodd" clip-rule="evenodd" d="M307.705 321.846L309.379 321.809C308.828 322.075 308.269 322.086 307.705 321.846Z" fill="black"/>
<path fill-rule="evenodd" clip-rule="evenodd" d="M323.144 325.419C322.749 325.423 322.356 325.426 321.963 325.431C322.359 325.428 322.753 325.424 323.144 325.419Z" fill="black"/>
<path fill-rule="evenodd" clip-rule="evenodd" d="M178.633 376.659C179.179 376.666 179.725 376.673 180.272 376.68C179.722 376.955 179.175 376.995 178.633 376.659Z" fill="black"/>
<path fill-rule="evenodd" clip-rule="evenodd" d="M305.313 281.821C305.339 282.324 305.367 282.827 305.393 283.328C305.367 282.825 305.339 282.322 305.313 281.821Z" fill="black"/>
<path fill-rule="evenodd" clip-rule="evenodd" d="M128.353 249.572C128.819 249.341 129.29 249.303 129.765 249.546C129.294 249.555 128.822 249.564 128.353 249.572Z" fill="black"/>
<path fill-rule="evenodd" clip-rule="evenodd" d="M290.024 287.632C290.062 288.055 290.1 288.482 290.14 288.905C290.1 288.478 290.062 288.055 290.024 287.632Z" fill="black"/>
<path fill-rule="evenodd" clip-rule="evenodd" d="M329.505 277.725C329.265 277.309 329.274 276.896 329.518 276.487C329.514 276.9 329.511 277.312 329.505 277.725Z" fill="black"/>
<path fill-rule="evenodd" clip-rule="evenodd" d="M322.144 321.543C322.624 321.397 323.106 321.188 323.584 321.548C323.104 321.546 322.624 321.545 322.144 321.543Z" fill="black"/>
<path fill-rule="evenodd" clip-rule="evenodd" d="M100.311 377.247C100.755 377.052 101.197 376.95 101.635 377.261C101.193 377.256 100.753 377.252 100.311 377.247Z" fill="black"/>
<path fill-rule="evenodd" clip-rule="evenodd" d="M191.004 376.621C191.477 376.413 191.95 376.3 192.418 376.636C191.947 376.631 191.475 376.626 191.004 376.621Z" fill="black"/>
<path fill-rule="evenodd" clip-rule="evenodd" d="M85.4623 315.271C85.4971 315.7 85.5336 316.128 85.5684 316.554C85.5336 316.126 85.4971 315.698 85.4623 315.271Z" fill="black"/>
<path fill-rule="evenodd" clip-rule="evenodd" d="M195.536 290.609C196.003 290.438 196.467 290.349 196.925 290.633C196.462 290.624 195.999 290.616 195.536 290.609Z" fill="black"/>
<path fill-rule="evenodd" clip-rule="evenodd" d="M305.304 303.354C305.33 303.771 305.356 304.191 305.382 304.608C305.356 304.189 305.33 303.771 305.304 303.354Z" fill="black"/>
<path fill-rule="evenodd" clip-rule="evenodd" d="M85.1613 265.591C85.123 265.927 85.083 266.265 85.0447 266.601C85.083 266.263 85.123 265.927 85.1613 265.591Z" fill="black"/>
<path fill-rule="evenodd" clip-rule="evenodd" d="M58.1239 363.355C58.0995 363.683 58.0769 364.012 58.0525 364.337C58.0769 364.008 58.1013 363.683 58.1239 363.355Z" fill="black"/>
<path fill-rule="evenodd" clip-rule="evenodd" d="M315.069 305.568C315.043 305.23 315.017 304.89 314.991 304.553C315.017 304.892 315.043 305.23 315.069 305.568Z" fill="black"/>
<path fill-rule="evenodd" clip-rule="evenodd" d="M281.099 375.987C281.515 375.991 281.931 375.994 282.345 375.996C281.929 375.994 281.515 375.991 281.099 375.987Z" fill="black"/>
<path fill-rule="evenodd" clip-rule="evenodd" d="M157.539 313.848C157.617 314.095 157.694 314.342 157.772 314.589C157.253 314.714 157.175 314.467 157.539 313.848Z" fill="black"/>
<path fill-rule="evenodd" clip-rule="evenodd" d="M188.705 290.05C189.126 290.048 189.549 290.047 189.97 290.045C189.549 290.245 189.128 290.383 188.705 290.05Z" fill="black"/>
<path fill-rule="evenodd" clip-rule="evenodd" d="M85.6989 317.297C85.7129 317.672 85.7268 318.048 85.7407 318.42C85.7268 318.046 85.7129 317.672 85.6989 317.297Z" fill="black"/>
<path fill-rule="evenodd" clip-rule="evenodd" d="M291.048 321.243C291.064 321.588 291.078 321.933 291.094 322.276C291.08 321.931 291.064 321.588 291.048 321.243Z" fill="black"/>
<path fill-rule="evenodd" clip-rule="evenodd" d="M81.5143 378.076C81.9145 377.809 82.3164 377.834 82.7184 378.072C82.3164 378.074 81.9145 378.074 81.5143 378.076Z" fill="black"/>
<path fill-rule="evenodd" clip-rule="evenodd" d="M92.0655 260.777C92.0864 261.128 92.1072 261.48 92.1299 261.83C92.109 261.476 92.0864 261.127 92.0655 260.777Z" fill="black"/>
<path fill-rule="evenodd" clip-rule="evenodd" d="M79.4298 378.112C79.8457 378.114 80.2633 378.116 80.6791 378.118C80.2615 378.403 79.8439 378.415 79.4298 378.112Z" fill="black"/>
<path fill-rule="evenodd" clip-rule="evenodd" d="M83.6893 279.847C83.6945 280.181 83.6997 280.515 83.7067 280.846C83.7015 280.512 83.6962 280.179 83.6893 279.847Z" fill="black"/>
<path fill-rule="evenodd" clip-rule="evenodd" d="M312.779 279.798C312.756 279.459 312.736 279.119 312.713 278.78C312.736 279.121 312.758 279.46 312.779 279.798Z" fill="black"/>
<path fill-rule="evenodd" clip-rule="evenodd" d="M218.198 364.983C217.931 364.988 217.665 364.992 217.403 364.997C217.669 364.993 217.933 364.988 218.198 364.983Z" fill="black"/>
<path fill-rule="evenodd" clip-rule="evenodd" d="M218.219 377.519C218.631 377.56 219.045 377.601 219.457 377.641C219.043 377.601 218.631 377.56 218.219 377.519Z" fill="black"/>
<path fill-rule="evenodd" clip-rule="evenodd" d="M144.004 349.742C144.541 352.774 139.829 355.74 139.455 351.431C139.318 349.854 140.372 348.745 141.552 347.782C143.228 346.414 144.164 347.723 144.004 349.742Z" fill="black"/>
<path fill-rule="evenodd" clip-rule="evenodd" d="M92.0672 312.744C93.1756 313.198 101.658 315.962 97.2523 317.353C96.0866 317.722 94.324 317.776 93.3131 317.129C92.0968 316.347 90.8701 314.044 92.0672 312.744Z" fill="black"/>
<path fill-rule="evenodd" clip-rule="evenodd" d="M94.1535 271.678C97.0314 271.344 99.6848 276.073 96.1353 275.918C93.5514 275.807 90.0784 271.678 94.1535 271.678Z" fill="black"/>
<path fill-rule="evenodd" clip-rule="evenodd" d="M104.451 283.272C106.855 285.37 102.399 290.064 100.63 288.247C99.7266 287.319 100.56 285.321 101.306 284.543C102.07 283.747 103.433 283.598 104.451 283.272Z" fill="black"/>
<path fill-rule="evenodd" clip-rule="evenodd" d="M111.607 337.65C110.187 337.877 103.948 339.915 105.249 336.211C105.745 334.797 107.13 335.217 108.395 335.283C110.434 335.386 111.607 335.288 111.607 337.65Z" fill="black"/>
<path fill-rule="evenodd" clip-rule="evenodd" d="M107.496 347.192C109.62 348.329 106.516 354.691 104.755 353.337C102.312 351.458 105.653 347.763 107.496 347.192Z" fill="black"/>
<path fill-rule="evenodd" clip-rule="evenodd" d="M116.761 342.078C117.794 341.657 122.663 346.341 120.81 347.645C119.86 348.313 118.059 347.168 117.486 346.477C116.413 345.182 116.315 343.586 116.761 342.078Z" fill="black"/>
<path fill-rule="evenodd" clip-rule="evenodd" d="M88.6673 303.787C89.7217 303.961 91.5452 304.015 91.6131 305.5C91.674 306.803 90.0384 307.226 88.8883 307.329C87.6929 307.435 86.113 307.098 86.0904 305.595C86.0661 303.975 88.629 304.074 88.6673 303.787Z" fill="black"/>
<path fill-rule="evenodd" clip-rule="evenodd" d="M114.701 368.358C115.827 369.04 121.071 371.5 118.823 373.275C117.981 373.94 115.432 372.567 114.857 371.869C114.172 371.037 113.502 369.085 114.701 368.358Z" fill="black"/>
<path fill-rule="evenodd" clip-rule="evenodd" d="M129.28 350.522C129.118 347.808 133.694 346.729 132.746 350.579C132.478 351.666 132.221 353.314 130.877 353.377C129.29 353.451 129.233 351.573 129.28 350.522Z" fill="black"/>
<path fill-rule="evenodd" clip-rule="evenodd" d="M115.143 303.341C115.176 305.399 111.231 307.214 111.202 303.952C111.174 301.037 115.291 300.184 115.143 303.341Z" fill="black"/>
<path fill-rule="evenodd" clip-rule="evenodd" d="M112.54 292.621C113.511 292.934 114.802 293.096 114.887 294.33C114.977 295.637 113.765 296.219 112.672 296.146C111.778 296.085 110.452 295.422 110.29 294.45C110.052 293.023 111.444 292.931 112.54 292.621Z" fill="black"/>
<path fill-rule="evenodd" clip-rule="evenodd" d="M94.4736 330.303C94.4562 328.606 97.8596 326.564 98.486 328.535C98.6861 329.165 97.0818 331.993 96.5494 332.206C95.1383 332.764 94.9399 331.459 94.4736 330.303Z" fill="black"/>
<path fill-rule="evenodd" clip-rule="evenodd" d="M122.358 358.571C121.208 359.601 117.76 362.492 118.017 358.611C118.182 356.13 122.663 356.261 122.358 358.571Z" fill="black"/>
<path fill-rule="evenodd" clip-rule="evenodd" d="M178.559 369.667C178.935 368.034 184.333 370.866 182.532 372.927C181.928 373.62 180.346 372.993 179.739 372.584C178.537 371.771 178.511 371.023 178.559 369.667Z" fill="black"/>
<path fill-rule="evenodd" clip-rule="evenodd" d="M148.491 334.726C148.702 333.998 148.935 332.712 149.629 332.247C150.885 331.408 151.978 332.676 151.978 334.011C151.98 336.503 149.143 337.288 148.491 334.726Z" fill="black"/>
<path fill-rule="evenodd" clip-rule="evenodd" d="M135.114 363.86C136.517 364.18 139.636 367.589 137.827 368.978C136.085 370.314 133.769 364.877 135.114 363.86Z" fill="black"/>
<path fill-rule="evenodd" clip-rule="evenodd" d="M136.449 338.073C138.25 338.216 140.727 341.135 137.926 341.598C135.735 341.962 133.188 338.787 136.449 338.073Z" fill="black"/>
<path fill-rule="evenodd" clip-rule="evenodd" d="M152.759 351.5C153.212 349.979 157.68 351.61 157.428 353.286C157.295 354.176 155.468 354.386 154.508 354.149C153.093 353.803 152.726 352.875 152.759 351.5Z" fill="black"/>
<path fill-rule="evenodd" clip-rule="evenodd" d="M100.09 266.486C100.123 264.519 103.904 263.717 104.181 265.699C104.431 267.492 100.043 269.398 100.09 266.486Z" fill="black"/>
<path fill-rule="evenodd" clip-rule="evenodd" d="M151.51 371.776C151.783 370.788 151.9 369.597 153.135 369.467C154.551 369.317 154.51 370.401 154.343 371.528C153.89 374.586 152.161 374.739 151.51 371.776Z" fill="black"/>
<path fill-rule="evenodd" clip-rule="evenodd" d="M91.808 289.899C89.8366 290.344 86.2261 286.548 88.4342 285.733C89.9879 285.157 91.808 288.753 91.808 289.899Z" fill="black"/>
<path fill-rule="evenodd" clip-rule="evenodd" d="M116.945 319.39C115.943 319.861 115.712 320.149 114.941 319.374C114.269 318.699 114.301 316.817 114.876 316.116C117.081 313.425 117.029 318.302 116.945 319.39Z" fill="black"/>
<path fill-rule="evenodd" clip-rule="evenodd" d="M125.13 313.935C126.176 314.069 129.283 317.017 127.665 318.189C125.682 319.625 124.559 315.127 125.13 313.935Z" fill="black"/>
<path fill-rule="evenodd" clip-rule="evenodd" d="M147.762 314.711C147.002 317.64 145.103 315.67 145.211 313.454C145.383 309.903 147.351 312.995 147.762 314.711Z" fill="black"/>
<path fill-rule="evenodd" clip-rule="evenodd" d="M159.303 361.747C160.589 362.28 162.336 367.199 160.497 367.463C158.433 367.759 159.12 362.772 159.303 361.747Z" fill="black"/>
<path fill-rule="evenodd" clip-rule="evenodd" d="M143.236 358.985C144.708 358.487 145.248 361.594 144.393 362.17C142.511 363.439 142.907 359.718 143.236 358.985Z" fill="black"/>
<path fill-rule="evenodd" clip-rule="evenodd" d="M129.28 350.522C129.263 350.935 129.243 351.347 129.224 351.756C129.243 351.344 129.261 350.933 129.28 350.522Z" fill="black"/>
<path fill-rule="evenodd" clip-rule="evenodd" d="M178.559 369.667C178.544 370.09 178.528 370.511 178.512 370.932C178.526 370.509 178.542 370.088 178.559 369.667Z" fill="black"/>
<path fill-rule="evenodd" clip-rule="evenodd" d="M152.759 351.5C152.75 351.859 152.742 352.217 152.733 352.574C152.742 352.216 152.75 351.859 152.759 351.5Z" fill="black"/>
<path fill-rule="evenodd" clip-rule="evenodd" d="M315.58 345.328C318.632 345.231 322.037 344.082 325.035 344.447C325.862 344.548 327.762 344.755 326.44 345.981C325.806 346.566 322.779 346.263 321.862 346.458C316.259 347.645 309.898 348.409 304.152 348.311C301.462 348.264 298.753 348.049 296.065 347.908C293.378 347.765 293.114 346.674 296.136 346.325C299.277 345.965 302.498 346.099 305.654 346.096C308.97 346.09 312.271 345.549 315.58 345.328Z" fill="black"/>
<path fill-rule="evenodd" clip-rule="evenodd" d="M322.281 337.974C321.987 338.811 321.729 340.731 320.604 340.856C319.027 341.032 318.766 338.326 318.824 337.335C318.895 336.141 319.325 334.155 320.809 334.569C322.064 334.919 322.191 337.018 322.281 337.974Z" fill="black"/>
<path fill-rule="evenodd" clip-rule="evenodd" d="M312.737 337.361C312.967 336.467 313.08 334.446 314.347 334.378C315.763 334.301 316.167 336.406 316.158 337.414C316.148 338.371 315.794 340.179 314.667 340.4C313.139 340.7 313.002 338.385 312.737 337.361Z" fill="black"/>
<path fill-rule="evenodd" clip-rule="evenodd" d="M296.843 338.968C296.383 340.045 296.081 341.528 294.661 340.794C293.565 340.226 293.411 337.937 293.618 336.89C293.832 335.803 294.287 334.557 295.534 335.046C296.973 335.609 296.827 337.783 296.843 338.968Z" fill="black"/>
<path fill-rule="evenodd" clip-rule="evenodd" d="M308.88 337.974C307.526 342.077 305.059 339.3 305.995 336.239C306.975 333.038 308.754 336.146 308.88 337.974Z" fill="black"/>
<path fill-rule="evenodd" clip-rule="evenodd" d="M302.287 338.178C301.911 338.9 301.511 340.458 300.498 340.294C299.258 340.092 299.218 337.703 299.353 336.813C299.474 336.033 299.823 334.735 300.862 334.752C302.364 334.777 302.263 337.243 302.287 338.178Z" fill="black"/>
<path fill-rule="evenodd" clip-rule="evenodd" d="M329.274 338.964C328.266 341.225 326.881 339.278 327.325 337.673C327.983 335.292 329.216 337.401 329.274 338.964Z" fill="black"/>
<path fill-rule="evenodd" clip-rule="evenodd" d="M304.61 346.097C303.51 346.094 302.409 346.09 301.309 346.085C302.411 345.878 303.51 345.798 304.61 346.097Z" fill="black"/>
<path fill-rule="evenodd" clip-rule="evenodd" d="M326.467 344.439C325.512 344.444 324.559 344.451 323.605 344.456C324.559 344.171 325.512 344.165 326.467 344.439Z" fill="black"/>
<path fill-rule="evenodd" clip-rule="evenodd" d="M315.58 345.328C314.817 345.38 314.054 345.431 313.291 345.481C314.054 345.431 314.818 345.38 315.58 345.328Z" fill="black"/>
<path fill-rule="evenodd" clip-rule="evenodd" d="M296.843 338.968C296.836 338.42 296.829 337.873 296.822 337.325C297.104 337.87 297.084 338.418 296.843 338.968Z" fill="black"/>
<path fill-rule="evenodd" clip-rule="evenodd" d="M302.828 348.299C303.27 348.303 303.714 348.306 304.152 348.311C303.709 348.306 303.268 348.303 302.828 348.299Z" fill="black"/>
<path fill-rule="evenodd" clip-rule="evenodd" d="M307.5 346.092C306.884 346.092 306.268 346.094 305.654 346.096C306.268 345.836 306.884 345.828 307.5 346.092Z" fill="black"/>
<path fill-rule="evenodd" clip-rule="evenodd" d="M302.287 338.178C302.271 337.607 302.257 337.034 302.244 336.465C302.257 337.036 302.273 337.607 302.287 338.178Z" fill="black"/>
<path fill-rule="evenodd" clip-rule="evenodd" d="M293.618 336.89C293.615 337.447 293.611 338.004 293.606 338.559C293.61 338 293.613 337.445 293.618 336.89Z" fill="black"/>
<path fill-rule="evenodd" clip-rule="evenodd" d="M319.079 345.121C318.535 345.17 317.99 345.22 317.447 345.269C317.992 345.22 318.535 345.17 319.079 345.121Z" fill="black"/>
<path fill-rule="evenodd" clip-rule="evenodd" d="M306.117 348.315C306.496 348.308 306.875 348.301 307.249 348.294C306.87 348.303 306.493 348.31 306.117 348.315Z" fill="black"/>
<path fill-rule="evenodd" clip-rule="evenodd" d="M322.281 337.974C322.248 337.624 322.215 337.274 322.182 336.926C322.215 337.276 322.248 337.626 322.281 337.974Z" fill="black"/>
<path fill-rule="evenodd" clip-rule="evenodd" d="M308.878 337.974C308.855 337.615 308.829 337.255 308.805 336.898C308.831 337.257 308.855 337.615 308.878 337.974Z" fill="black"/>
<path fill-rule="evenodd" clip-rule="evenodd" d="M113.493 232.401C112.004 232.01 111.724 229.916 111.964 228.63C112.235 228.01 112.507 227.39 112.778 226.771C112.672 226.541 112.566 226.311 112.46 226.083C112.595 224.805 112.247 224.25 113.714 224.767C116.439 225.73 116.876 232.302 113.493 232.401Z" fill="black"/>
<path fill-rule="evenodd" clip-rule="evenodd" d="M135.551 228.353C136.778 228.255 139.008 229.684 137.785 231.068C137.028 231.926 134.533 231.521 133.517 231.7C132.167 231.937 130.759 232.26 131.488 230.24C132.062 228.65 134.11 228.311 135.551 228.353Z" fill="black"/>
<path fill-rule="evenodd" clip-rule="evenodd" d="M134.258 237.863C133.012 236.863 133.569 232.307 135.466 233.127C137.418 233.971 135.299 237.205 134.258 237.863Z" fill="black"/>
<path fill-rule="evenodd" clip-rule="evenodd" d="M111.964 228.63C111.964 229.108 111.962 229.589 111.962 230.066C111.701 229.585 111.71 229.106 111.964 228.63Z" fill="black"/>
<path fill-rule="evenodd" clip-rule="evenodd" d="M113.493 232.401C113.747 232.394 114.001 232.388 114.252 232.381C113.998 232.389 113.746 232.394 113.493 232.401Z" fill="black"/>
<path fill-rule="evenodd" clip-rule="evenodd" d="M267.455 363.589C267.338 365.662 265.114 364.13 265.271 362.743C265.558 360.228 266.98 362.713 267.455 363.589Z" fill="black"/>
</g>
</g>
<defs>
<clipPath id="clip0_183_6">
<rect width="386.689" height="412" fill="white"/>
</clipPath>
</defs>
</svg>
